<?xml version="1.0" standalone="no"?>
<!DOCTYPE svg PUBLIC "-//W3C//DTD SVG 20010904//EN"
 "http://www.w3.org/TR/2001/REC-SVG-20010904/DTD/svg10.dtd">
<svg version="1.0" xmlns="http://www.w3.org/2000/svg"
 width="200.000000pt" height="200.000000pt" viewBox="0 0 200.000000 200.000000"
 preserveAspectRatio="xMidYMid meet">
<metadata>
Created by potrace 1.11, written by Peter Selinger 2001-2013
</metadata>
<g transform="translate(0.000000,200.000000) scale(0.100000,-0.100000)"
fill="#000000" stroke="none">
<path d="M260 1536 c0 -2 67 -120 149 -261 l149 -258 -169 -281 -169 -281 82
-3 c45 -2 86 -1 93 2 6 2 65 94 131 205 65 110 121 200 124 200 3 0 57 -90
120 -201 63 -110 120 -202 126 -205 6 -2 48 -3 93 -1 l81 3 -160 277 c-88 152
-160 281 -160 285 0 5 67 121 150 257 82 137 150 253 150 257 0 5 -40 9 -89 9
l-89 0 -110 -186 -110 -186 -103 183 -104 184 -93 3 c-50 1 -92 1 -92 -2z"/>
<path d="M1370 1141 c-134 -41 -219 -158 -228 -314 -10 -177 54 -302 188 -366
47 -22 68 -26 150 -26 75 0 105 5 141 21 56 26 111 74 150 130 l29 43 -66 37
-67 37 -21 -29 c-73 -103 -170 -130 -261 -74 -35 22 -72 81 -77 125 l-3 30
244 3 244 2 -5 80 c-11 193 -134 311 -321 309 -40 0 -83 -4 -97 -8z m180 -151
c26 -13 47 -34 60 -60 11 -21 20 -42 20 -45 0 -3 -70 -5 -156 -5 l-156 0 7 28
c21 84 137 127 225 82z"/>
</g>
</svg>
