<?xml version="1.0" encoding="UTF-8"?>
<svg width="30px" height="30px" viewBox="0 0 30 30" version="1.1" xmlns="http://www.w3.org/2000/svg" xmlns:xlink="http://www.w3.org/1999/xlink">
    <!-- Generator: Sketch 47.1 (45422) - http://www.bohemiancoding.com/sketch -->
    <title>Instagram</title>
    <desc>Created with Sketch.</desc>
    <defs>
        <radialGradient cx="26.5626266%" cy="107.702106%" fx="26.5626266%" fy="107.702106%" r="49.9906001%" gradientTransform="translate(0.265626,1.077021),scale(0.999727,1.000000),translate(-0.265626,-1.077021)" id="radialGradient-1">
            <stop stop-color="#FFDD55" offset="0%"></stop>
            <stop stop-color="#FFDD55" offset="10%"></stop>
            <stop stop-color="#FF543E" offset="50%"></stop>
            <stop stop-color="#C837AB" offset="100%"></stop>
        </radialGradient>
        <radialGradient cx="-16.7505274%" cy="7.20383154%" fx="-16.7505274%" fy="7.20383154%" r="49.9906001%" gradientTransform="translate(-0.167505,0.072038),scale(0.999727,1.000000),translate(0.167505,-0.072038)" id="radialGradient-2">
            <stop stop-color="#3771C8" offset="0%"></stop>
            <stop stop-color="#3771C8" offset="12.8%"></stop>
            <stop stop-color="#6600FF" stop-opacity="0" offset="100%"></stop>
        </radialGradient>
    </defs>
    <g id="index2.js" stroke="none" stroke-width="1" fill="none" fill-rule="evenodd">
        <g id="Desktop-HD" transform="translate(-1128.000000, -60.000000)" fill-rule="nonzero">
            <g id="Instagram" transform="translate(1128.000000, 60.000000)">
                <path d="M14.8932824,0 C8.67755725,0 6.85969466,0.00641221374 6.50633588,0.0357251908 C5.23076336,0.141755725 4.4370229,0.34259542 3.57229008,0.773129771 C2.90587786,1.1040458 2.38030534,1.48763359 1.86160305,2.02534351 C0.916946565,3.0059542 0.344427481,4.21236641 0.137175573,5.64641221 C0.0364122137,6.34259542 0.00709923664,6.48458015 0.00114503817,10.0406107 C-0.00114503817,11.2259542 0.00114503817,12.7859542 0.00114503817,14.8783969 C0.00114503817,21.089084 0.00801526718,22.9051145 0.0377862595,23.2577863 C0.140839695,24.4990076 0.335496183,25.2799237 0.747709924,26.1341221 C1.53549618,27.7692366 3.04007634,28.9967176 4.81259542,29.4547328 C5.42633588,29.6127481 6.10419847,29.699771 6.97442748,29.7409924 C7.34312977,29.7570229 11.101145,29.7684733 14.8614504,29.7684733 C18.6217557,29.7684733 22.3820611,29.7638931 22.7416031,29.7455725 C23.7492366,29.6981679 24.3343511,29.6196183 24.9812977,29.4524427 C26.7652672,28.9921374 28.2423664,27.7829771 29.0461832,26.1249618 C29.4503817,25.291374 29.6553435,24.480687 29.7480916,23.3042748 C29.7682443,23.0477863 29.7767176,18.9583969 29.7767176,14.8745038 C29.7767176,10.7899237 29.7675573,6.7080916 29.7474046,6.45160305 C29.6535115,5.25618321 29.4485496,4.45236641 29.0312977,3.60274809 C28.6889313,2.90725191 28.3087786,2.3878626 27.7568702,1.85679389 C26.7719084,0.916030534 25.5673282,0.34351145 24.1319084,0.13648855 C23.4364122,0.0359541985 23.2978626,0.00618320611 19.739084,0 L14.8932824,0 Z" id="Shape" fill="url(#radialGradient-1)"></path>
                <path d="M14.8932824,0 C8.67755725,0 6.85969466,0.00641221374 6.50633588,0.0357251908 C5.23076336,0.141755725 4.4370229,0.34259542 3.57229008,0.773129771 C2.90587786,1.1040458 2.38030534,1.48763359 1.86160305,2.02534351 C0.916946565,3.0059542 0.344427481,4.21236641 0.137175573,5.64641221 C0.0364122137,6.34259542 0.00709923664,6.48458015 0.00114503817,10.0406107 C-0.00114503817,11.2259542 0.00114503817,12.7859542 0.00114503817,14.8783969 C0.00114503817,21.089084 0.00801526718,22.9051145 0.0377862595,23.2577863 C0.140839695,24.4990076 0.335496183,25.2799237 0.747709924,26.1341221 C1.53549618,27.7692366 3.04007634,28.9967176 4.81259542,29.4547328 C5.42633588,29.6127481 6.10419847,29.699771 6.97442748,29.7409924 C7.34312977,29.7570229 11.101145,29.7684733 14.8614504,29.7684733 C18.6217557,29.7684733 22.3820611,29.7638931 22.7416031,29.7455725 C23.7492366,29.6981679 24.3343511,29.6196183 24.9812977,29.4524427 C26.7652672,28.9921374 28.2423664,27.7829771 29.0461832,26.1249618 C29.4503817,25.291374 29.6553435,24.480687 29.7480916,23.3042748 C29.7682443,23.0477863 29.7767176,18.9583969 29.7767176,14.8745038 C29.7767176,10.7899237 29.7675573,6.7080916 29.7474046,6.45160305 C29.6535115,5.25618321 29.4485496,4.45236641 29.0312977,3.60274809 C28.6889313,2.90725191 28.3087786,2.3878626 27.7568702,1.85679389 C26.7719084,0.916030534 25.5673282,0.34351145 24.1319084,0.13648855 C23.4364122,0.0359541985 23.2978626,0.00618320611 19.739084,0 L14.8932824,0 Z" id="Shape" fill="url(#radialGradient-2)"></path>
                <path d="M14.8864122,3.89312977 C11.9010687,3.89312977 11.5264122,3.90618321 10.3538931,3.95954198 C9.18366412,4.01312977 8.3848855,4.19839695 7.6859542,4.47022901 C6.9629771,4.75099237 6.34969466,5.12656489 5.73870229,5.73778626 C5.12725191,6.34877863 4.75167939,6.96206107 4.47,7.68480916 C4.19748092,8.38396947 4.01198473,9.1829771 3.95931298,10.3527481 C3.90687023,11.5252672 3.89312977,11.9001527 3.89312977,14.8854962 C3.89312977,17.8708397 3.90641221,18.2443511 3.95954198,19.4168702 C4.01335878,20.5870992 4.19862595,21.3858779 4.47022901,22.0848092 C4.75122137,22.8077863 5.12679389,23.4210687 5.73801527,24.0320611 C6.34877863,24.6435115 6.96206107,25.02 7.68458015,25.3007634 C8.38396947,25.5725954 9.1829771,25.7578626 10.3529771,25.8114504 C11.5254962,25.8648092 11.8999237,25.8778626 14.8850382,25.8778626 C17.8706107,25.8778626 18.2441221,25.8648092 19.4166412,25.8114504 C20.5868702,25.7578626 21.3865649,25.5725954 22.0859542,25.3007634 C22.8087023,25.02 23.4210687,24.6435115 24.0318321,24.0320611 C24.6432824,23.4210687 25.018855,22.8077863 25.3005344,22.0850382 C25.5707634,21.3858779 25.7562595,20.5868702 25.8112214,19.4170992 C25.8638931,18.2445802 25.8776336,17.8708397 25.8776336,14.8854962 C25.8776336,11.9001527 25.8638931,11.5254962 25.8112214,10.3529771 C25.7562595,9.18274809 25.5707634,8.38396947 25.3005344,7.68503817 C25.018855,6.96206107 24.6432824,6.34877863 24.0318321,5.73778626 C23.4203817,5.12633588 22.8089313,4.75076336 22.0852672,4.47022901 C21.3845038,4.19839695 20.5852672,4.01312977 19.4150382,3.95954198 C18.2425191,3.90618321 17.8692366,3.89312977 14.8829771,3.89312977 L14.8864122,3.89312977 Z M13.9003053,5.8740458 C14.1929771,5.87358779 14.519542,5.8740458 14.8864122,5.8740458 C17.821374,5.8740458 18.1692366,5.88458015 19.3282443,5.93725191 C20.4,5.98625954 20.9816794,6.16534351 21.3691603,6.31580153 C21.8821374,6.51503817 22.2478626,6.75320611 22.6323664,7.13793893 C23.0170992,7.52267176 23.2552672,7.88908397 23.4549618,8.40206107 C23.6054198,8.78908397 23.7847328,9.37076336 23.8335115,10.4425191 C23.8861832,11.6012977 23.8976336,11.9493893 23.8976336,14.8829771 C23.8976336,17.8165649 23.8861832,18.1646565 23.8335115,19.3234351 C23.7845038,20.3951908 23.6054198,20.9768702 23.4549618,21.3638931 C23.2557252,21.8768702 23.0170992,22.2421374 22.6323664,22.6266412 C22.2476336,23.011374 21.8823664,23.249542 21.3691603,23.4487786 C20.9821374,23.5999237 20.4,23.7785496 19.3282443,23.8275573 C18.1694656,23.880229 17.821374,23.8916794 14.8864122,23.8916794 C11.9512214,23.8916794 11.6033588,23.880229 10.4445802,23.8275573 C9.37282443,23.7780916 8.79114504,23.5990076 8.40343511,23.4485496 C7.89045802,23.249313 7.5240458,23.011145 7.13931298,22.6264122 C6.75458015,22.2416794 6.51641221,21.8761832 6.31671756,21.3629771 C6.16625954,20.9759542 5.98694656,20.3942748 5.93816794,19.3225191 C5.88549618,18.1637405 5.87496183,17.8156489 5.87496183,14.880229 C5.87496183,11.9448092 5.88549618,11.5985496 5.93816794,10.439771 C5.98717557,9.36801527 6.16625954,8.78633588 6.31671756,8.39885496 C6.5159542,7.88587786 6.75458015,7.51946565 7.13931298,7.13473282 C7.5240458,6.75 7.89045802,6.51183206 8.40343511,6.3121374 C8.79091603,6.16099237 9.37282443,5.98236641 10.4445802,5.93312977 C11.458626,5.88732824 11.8516031,5.87358779 13.9003053,5.87129771 L13.9003053,5.8740458 Z M20.7540458,7.69923664 C20.0258015,7.69923664 19.4349618,8.28938931 19.4349618,9.0178626 C19.4349618,9.74610687 20.0258015,10.3369466 20.7540458,10.3369466 C21.4822901,10.3369466 22.0731298,9.74610687 22.0731298,9.0178626 C22.0731298,8.28961832 21.4822901,7.69877863 20.7540458,7.69877863 L20.7540458,7.69923664 Z M14.8864122,9.24045802 C11.7689313,9.24045802 9.24137405,11.7680153 9.24137405,14.8854962 C9.24137405,18.0029771 11.7689313,20.5293893 14.8864122,20.5293893 C18.0038931,20.5293893 20.5305344,18.0029771 20.5305344,14.8854962 C20.5305344,11.7680153 18.0036641,9.24045802 14.8861832,9.24045802 L14.8864122,9.24045802 Z M14.8864122,11.221374 C16.9099237,11.221374 18.5505344,12.8617557 18.5505344,14.8854962 C18.5505344,16.9090076 16.9099237,18.5496183 14.8864122,18.5496183 C12.8626718,18.5496183 11.2222901,16.9090076 11.2222901,14.8854962 C11.2222901,12.8617557 12.8626718,11.221374 14.8864122,11.221374 Z" id="Shape" fill="#FFFFFF"></path>
            </g>
        </g>
    </g>
</svg>