<?xml version="1.0" encoding="UTF-8"?>
<svg width="35px" height="29px" viewBox="0 0 35 29" version="1.1" xmlns="http://www.w3.org/2000/svg" xmlns:xlink="http://www.w3.org/1999/xlink">
    <!-- Generator: Sketch 47.1 (45422) - http://www.bohemiancoding.com/sketch -->
    <title>Twitter</title>
    <desc>Created with Sketch.</desc>
    <defs></defs>
    <g id="index2.js" stroke="none" stroke-width="1" fill="none" fill-rule="evenodd">
        <g id="Desktop-HD" transform="translate(-1085.000000, -61.000000)" fill-rule="nonzero" fill="#1DA1F2">
            <g id="Twitter" transform="translate(1085.000000, 61.000000)">
                <path d="M11.2704615,28.7586154 C24.3329231,28.7586154 31.4775385,17.9364615 31.4775385,8.55153846 C31.4775385,8.24415385 31.4775385,7.93815385 31.4567692,7.63353846 C32.8466896,6.62818426 34.0464922,5.38337147 35,3.95738462 C33.7038325,4.53172553 32.3288405,4.90837813 30.9209231,5.07476923 C32.4034917,4.18720592 33.5130941,2.79122275 34.0432308,1.14661538 C32.6491412,1.97386121 31.1239715,2.5568628 29.5335385,2.87046154 C27.3321146,0.529622848 23.834073,-0.0433056526 21.0009144,1.47294144 C18.1677558,2.98918853 16.7040731,6.21752793 17.4306154,9.34769231 C11.7203172,9.06142244 6.40004339,6.36429376 2.79384615,1.92753846 C0.908862278,5.17258501 1.87167553,9.32395928 4.99261538,11.408 C3.86241089,11.3745028 2.75684836,11.0696182 1.76923077,10.5190769 C1.76923077,10.5481538 1.76923077,10.5786154 1.76923077,10.6090769 C1.77015588,13.9897441 4.15319437,16.9015102 7.46692308,17.5709231 C6.4213579,17.8560708 5.32434235,17.8977536 4.26015385,17.6927692 C5.19054329,20.5858162 7.85679555,22.5677007 10.8952308,22.6247692 C8.38040236,24.6012135 5.27377471,25.6741461 2.07523077,25.6709231 C1.51017417,25.6698383 0.945667167,25.6356258 0.384615385,25.5684615 C3.63241901,27.6526906 7.41141856,28.7582234 11.2704615,28.7530769" id="Shape"></path>
            </g>
        </g>
    </g>
</svg>